# xmcd
# Copyright (C) 1995-1998 Ti Kan
#
# Track frame offsets:
#       150
#       10056
#       29945
#       46939
#       61449
#       81081
#       98370
#       114632
#       130261
#       141026
#       157263
#
# Disc length: 2466 seconds
#
# Revision: 0
# Processed by: cddbd v1.5.2PL0 Copyright (c) Steve Scherf et al.
# Submitted via: CD-Import v1.0
#
DISCID=9109a00b
DTITLE=Lo Fat Orchestra - Questions For Honey
DYEAR=1900
DGENRE=
TTITLE0=Style
TTITLE1=Emo Kid
TTITLE2=Blue Eyes
TTITLE3=No Good Brother
TTITLE4=The Countryside Makes Me Depressive
TTITLE5=Lo Fat Pills
TTITLE6=Questions For Honey
TTITLE7=C.s.i Black Forest
TTITLE8=16/16/8
TTITLE9=Wherever You Go
TTITLE10=I'm About To Go Insane
EXTD=
EXTT0=
EXTT1=
EXTT2=
EXTT3=
EXTT4=
EXTT5=
EXTT6=
EXTT7=
EXTT8=
EXTT9=
EXTT10=
PLAYORDER=
